<?xml version="1.0" standalone="no"?>
<!DOCTYPE svg PUBLIC "-//W3C//DTD SVG 20010904//EN"
 "http://www.w3.org/TR/2001/REC-SVG-20010904/DTD/svg10.dtd">
<svg version="1.0" xmlns="http://www.w3.org/2000/svg"
 width="512.000000pt" height="512.000000pt" viewBox="0 0 512.000000 512.000000"
 preserveAspectRatio="xMidYMid meet">

<g transform="translate(0.000000,512.000000) scale(0.100000,-0.100000)"
fill="#000000" stroke="none">
<path d="M3990 4730 c16 -33 52 -93 78 -133 73 -112 97 -196 96 -337 -1 -98
-5 -127 -28 -195 -58 -168 -136 -260 -411 -480 -287 -230 -333 -286 -441 -530
-80 -183 -88 -194 -104 -134 -76 291 -133 484 -195 665 -107 309 -123 409 -90
537 45 174 163 285 439 413 47 21 85 42 86 45 0 13 -103 51 -177 65 -41 8
-134 14 -206 14 -130 0 -133 1 -177 30 -82 54 -189 62 -307 20 -28 -10 -101
-47 -160 -83 -158 -94 -344 -187 -376 -187 -15 0 -54 11 -87 25 -94 39 -141
30 -156 -31 -24 -93 95 -184 223 -171 30 3 84 19 120 36 36 17 67 31 68 31 2
0 -8 -31 -21 -69 -26 -75 -44 -210 -44 -338 0 -180 -58 -491 -131 -698 -54
-155 -80 -256 -82 -319 -1 -30 -5 -52 -8 -48 -3 4 -20 50 -38 102 -38 113
-126 300 -172 367 -60 87 -122 144 -296 275 -189 141 -247 201 -312 328 -81
155 -107 300 -90 502 12 147 30 224 68 295 16 29 24 50 18 46 -103 -59 -260
-186 -337 -270 -174 -190 -246 -359 -238 -553 10 -221 125 -383 435 -616 108
-81 164 -131 197 -174 72 -96 72 -166 1 -196 -104 -43 -252 19 -418 176 -112
106 -157 165 -246 319 -79 139 -114 232 -115 308 -1 28 -4 49 -8 45 -11 -12
-69 -185 -89 -267 -33 -138 -20 -305 31 -406 34 -66 89 -119 205 -194 124 -81
176 -133 212 -212 29 -63 42 -168 24 -201 -17 -33 -83 -30 -143 6 -189 111
-345 288 -425 481 -27 66 -28 55 -8 -57 40 -227 120 -417 224 -525 20 -21 75
-70 122 -107 109 -88 159 -158 159 -226 0 -59 -97 -50 -212 20 -67 40 -216
173 -259 230 -36 49 -37 32 -3 -70 69 -212 169 -333 374 -454 118 -69 240
-171 240 -200 0 -7 -5 -8 -13 -3 -6 4 -94 10 -194 13 -171 5 -183 6 -214 29
-38 28 -32 17 33 -66 67 -85 148 -157 213 -189 45 -22 76 -28 163 -34 122 -8
169 -26 220 -85 52 -59 46 -65 -61 -65 -54 0 -114 6 -143 15 -27 8 -51 15 -54
15 -10 0 69 -63 136 -109 39 -27 99 -73 135 -101 35 -29 89 -64 119 -80 84
-42 459 -178 600 -217 203 -56 331 -102 401 -143 72 -42 163 -134 205 -206 49
-83 35 -37 -29 98 -103 216 -142 266 -304 383 l-82 59 56 34 c95 56 171 92
233 108 85 22 128 8 200 -64 69 -69 112 -155 143 -281 13 -52 26 -91 29 -85 3
5 9 29 13 54 23 141 96 304 154 344 82 57 165 43 333 -56 l106 -63 -61 -55
c-70 -63 -166 -188 -208 -272 -28 -56 -79 -215 -79 -247 0 -9 11 3 24 26 50
86 139 193 199 239 94 70 182 110 407 184 251 83 397 146 495 214 100 69 342
252 350 266 8 13 7 13 -59 -10 -141 -48 -229 -45 -243 8 -7 31 4 50 46 79 34
23 108 37 272 52 114 10 154 24 207 75 41 38 93 122 122 195 l21 54 -23 -17
c-13 -9 -48 -29 -78 -44 -49 -24 -69 -27 -195 -32 -89 -3 -149 -10 -163 -18
-22 -13 -23 -12 -13 6 30 56 122 115 296 192 221 97 278 144 354 296 32 65 81
180 81 192 0 2 -30 -21 -67 -51 -151 -120 -375 -247 -436 -247 -48 0 -71 29
-64 76 11 69 87 126 234 175 110 36 164 74 215 149 43 62 110 227 133 321 13
58 21 254 8 219 -70 -196 -161 -327 -303 -439 -75 -59 -125 -83 -177 -83 -57
0 -89 22 -104 70 -27 90 27 174 191 301 202 156 282 262 311 409 22 113 -4
267 -66 397 -31 65 -33 68 -34 36 -5 -196 -228 -549 -399 -633 -58 -29 -76
-33 -147 -33 -127 0 -180 38 -180 129 1 94 65 166 271 306 180 123 264 202
306 288 30 61 33 74 32 157 -1 74 -7 107 -34 185 -81 237 -233 465 -392 588
-30 23 -106 66 -171 96 l-117 55 30 -59z m-1207 -122 c15 -24 -8 -95 -43 -130
-35 -34 -77 -37 -150 -8 -28 11 -61 20 -73 20 -14 1 1 12 44 34 36 18 82 45
100 59 63 47 103 56 122 25z m-336 -1775 c48 -25 79 -70 87 -128 7 -45 26 -73
26 -37 0 36 31 110 58 135 41 40 103 57 201 57 98 0 190 -20 366 -80 223 -76
328 -90 669 -93 206 -2 235 -4 230 -17 -29 -71 -66 -203 -140 -494 -83 -332
-151 -563 -160 -553 -16 16 32 440 81 723 14 78 25 149 25 159 0 17 -9 18
-129 11 -202 -10 -279 3 -541 92 l-225 77 -110 0 c-92 0 -118 -4 -157 -22 -63
-29 -131 -100 -159 -167 l-22 -55 -29 61 c-58 122 -131 185 -230 195 -66 7
-139 -11 -290 -71 -200 -79 -325 -103 -573 -112 -82 -3 -154 -10 -160 -15 -6
-6 -3 -31 8 -72 26 -91 64 -298 76 -410 16 -143 25 -387 16 -433 l-7 -39 -14
50 c-26 94 -147 603 -190 799 -14 66 -38 155 -54 198 -15 43 -25 80 -21 82 3
2 42 -1 86 -5 89 -9 377 4 470 21 97 18 211 49 345 92 245 80 382 95 467 51z
m519 -377 c38 -13 107 -42 154 -64 180 -84 371 -122 473 -94 34 9 37 9 33 -6
-30 -100 -62 -297 -77 -471 -11 -124 -11 -178 4 -400 17 -240 33 -370 52 -415
8 -18 5 -19 -66 -12 -150 13 -285 62 -409 146 -112 76 -164 95 -260 95 -106 0
-157 -21 -240 -101 -54 -51 -61 -55 -78 -43 -11 8 -47 35 -82 62 -147 112
-273 103 -517 -36 -123 -70 -202 -103 -323 -133 -52 -13 -95 -22 -96 -21 -1 1
4 36 11 77 17 93 20 824 5 981 -10 98 -35 254 -45 282 -4 9 21 12 102 14 137
2 286 32 423 85 124 48 212 69 254 61 71 -13 122 -78 151 -191 37 -144 59
-666 34 -823 l-11 -69 49 -76 c54 -86 46 -88 109 21 35 59 35 60 24 120 -17
95 -33 457 -26 603 8 166 27 268 62 333 54 99 150 123 290 75z"/>
</g>
</svg>
